<svg version="1.2" xmlns="http://www.w3.org/2000/svg" viewBox="0 0 300 300" width="300" height="300">
	<title>27041343_2205_w020_n001_1399a_p30_1399-ai-svg</title>
	<defs>
		<linearGradient id="g1" x1="146.9" y1="111.4" x2="146.9" y2="34.8" gradientUnits="userSpaceOnUse">
			<stop offset="0" stop-color="#dd4dff"/>
			<stop offset="1" stop-color="#ff00ff"/>
		</linearGradient>
		<linearGradient id="g2" x1="34.7" y1="105.8" x2="34.7" y2="46.3" gradientUnits="userSpaceOnUse">
			<stop offset="0" stop-color="#dd4dff"/>
			<stop offset="1" stop-color="#ff00ff"/>
		</linearGradient>
		<linearGradient id="g3" x1="31.4" y1="287.1" x2="31.4" y2="98.1" gradientUnits="userSpaceOnUse">
			<stop offset="0" stop-color="#6e07ff"/>
			<stop offset="1" stop-color="#a460fb"/>
		</linearGradient>
		<linearGradient id="g4" x1="170.5" y1="288.3" x2="170.5" y2="94" gradientUnits="userSpaceOnUse">
			<stop offset="0" stop-color="#dd4dff"/>
			<stop offset="1" stop-color="#ff00ff"/>
		</linearGradient>
		<linearGradient id="g5" x1="66.5" y1="290.7" x2="66.5" y2="91.7" gradientUnits="userSpaceOnUse">
			<stop offset="0" stop-color="#dd4dff"/>
			<stop offset="1" stop-color="#ff00ff"/>
		</linearGradient>
	</defs>
	<style>
		.s0 { fill: #b00088 } 
		.s1 { opacity: .5;mix-blend-mode: multiply;fill: #b00088 } 
		.s2 { fill: url(#g1) } 
		.s3 { fill: url(#g2) } 
		.s4 { opacity: .8;mix-blend-mode: multiply;fill: #b00088 } 
		.s5 { fill: #a41363 } 
		.s6 { fill: url(#g3) } 
		.s7 { opacity: .5;mix-blend-mode: multiply;fill: #aa007e } 
		.s8 { fill: url(#g4) } 
		.s9 { fill: url(#g5) } 
		.s10 { mix-blend-mode: multiply;fill: #b00088 } 
		.s11 { opacity: .3;mix-blend-mode: multiply;fill: #aa007e } 
		.s12 { opacity: .3;mix-blend-mode: multiply;fill: #b00088 } 
		.s13 { fill: #db8bff } 
		.s14 { mix-blend-mode: soft-light;fill: #ba81ff } 
		.s15 { fill: #ffffff } 
		.s16 { mix-blend-mode: soft-light;fill: #ffffff } 
		.s17 { fill: #b06bff } 
		.s18 { fill: #d8e622 } 
	</style>
	<g id="background">
	</g>
	<g id="objects">
		<g id="&lt;Group&gt;">
			<g id="&lt;Group&gt;">
				<path id="&lt;Path&gt;" class="s0" d="m63.6 97.7c-9.3-10.3-2.2-36.9 3.8-43 5.9-6.1 41.7-25.4 52.1-18.3 10.4 7.1 19 57.5 42.7 59.1 0 0-89.2 12.4-98.6 2.2z"/>
				<path id="&lt;Path&gt;" class="s1" d="m66 88.3c-5-24.3 43.4 2.6 59.3 9.4 16 6.7-22.3 9.2-43.2 6.1-20.9-3-16.1-15.5-16.1-15.5z"/>
				<path id="&lt;Compound Path&gt;" fill-rule="evenodd" class="s2" d="m238.9 112.9c-8.6 1.9-88.8-15.2-88.8-15.2 13.8-0.9 16.1-42.5 36.3-62.8 20.7-20.7 50.3-5.3 71.1 18.6 20.4 23.4-10 57.4-18.6 59.4zm-72.2-20.1c0 0 18.6 11.5 39.8 1.6 21.4-10.1 21.1-48 21.1-48 0 0-0.1 0-0.1 0-0.8 0.5-8.4 5.2-17.2 11.4-6.6 5.1-13.5 10.9-20.3 16.6-12 12.1-22 17.6-23.2 18.3-0.1 0.1-0.1 0.1-0.1 0.1z"/>
				<path id="&lt;Compound Path&gt;" fill-rule="evenodd" class="s3" d="m140.6 99.1c0 0-8.6 5.8-30.8 3.5-2-0.3-4.3-0.3-6.8-0.3-8.1 0.2-18.2 1.5-27.9 2.8-19.9 2.7-38.5 5.5-36.7-1.3 3-11.3 8.2-72 46-63.4 37.6 8.4 42.7 60.1 56.2 58.7zm-23.6-8q0 0-0.1-0.1c-8.3-7.6-20.1-18.4-32.3-23q0 0-0.1 0c-6.8-2.3-14-2.8-20.9-0.2 0 0-4.2 9.7 4.2 20.2 8.4 10.3 49.2 3.1 49.2 3.1z"/>
				<path id="&lt;Path&gt;" class="s0" d="m227.5 46.4c-0.8 0.5-8.4 5.2-17.2 11.4 6.2-4.7 12.2-8.8 17.2-11.4z"/>
				<path id="&lt;Path&gt;" class="s0" d="m255.7 84.5c-4.2 18-17.8 25.1-28.6 25.1-10.9 0-71.7-11.7-71.7-11.7 2.7 0 6.6-2 11.3-5.1 0 0 18.6 11.5 39.8 1.6 21.4-10.1 21.1-48 21.1-48 5.1-2.6 9.4-3.6 12.2-2.3 15.8 7.2 20.2 22 15.9 40.4z"/>
				<path id="&lt;Path&gt;" class="s0" d="m63.6 67.8q1.9-0.8 3.9-1.3c5.5-1.5 11.3-0.7 17 1.5-6.8-2.3-14-2.8-20.9-0.2z"/>
				<path id="&lt;Path&gt;" class="s0" d="m127.8 99.6c0 0-10.9 1.2-24.8 2.7-8.8 0.9-18.7 2-27.9 2.8-16.8 1.5-31.2 2.4-31.9 1.2-1.4-2.9-0.8-30 20.4-38.5 0 0-4.2 9.7 4.2 20.2 8.4 10.3 49.2 3.1 49.2 3.1 5.2 4.8 9.1 8.4 10.8 8.5z"/>
				<path id="&lt;Path&gt;" class="s0" d="m210.3 57.8c-6.6 5.1-13.5 10.9-20.3 16.6 5.6-5.7 13.4-11.6 20.3-16.6z"/>
				<path id="&lt;Path&gt;" class="s0" d="m116.9 91c-8.3-7.6-20.1-18.4-32.3-23 16.9 5.6 30.9 21.4 32.3 23z"/>
				<path id="&lt;Path&gt;" class="s4" d="m231.8 44.6c3-1.3 12 1.6 20.5 11 8.5 9.3 2.4 32.3-2.3 38.1-4.7 5.6-30.2 6.8-27.5-3.8 2.7-10.7 4.7-35.9 4.7-35.9 0.4-3.5 1.6-8.2 4.6-9.4z"/>
				<path id="&lt;Path&gt;" class="s4" d="m63.6 67.8c0 0-4.6 9 2.4 20.5 7 11.4-14.7 17.1-19.9 17.5-5.3 0.4-4-12.5 1.1-22.3 5.1-9.9 16.4-15.7 16.4-15.7z"/>
				<path id="&lt;Path&gt;" class="s5" d="m100.8 93.6c5.8 0.1 9 9 9 9l-18.6 3.6c0 0 3.7-12.7 9.6-12.6z"/>
				<path id="&lt;Path&gt;" class="s5" d="m184.2 103.2c0 0 16.5-6.5 21.1-5.3 4.5 1.2 5.8 10.6 5.8 10.6z"/>
				<path id="&lt;Path&gt;" class="s6" d="m246.5 244.5q0-0.1 0 0 0 0-0.1 0.3c-2.8 20.9-4.9 36.1-5 36.7-0.2 2-78.3 5.5-91.8 6-13.4 0.5-83.7-4-90.3-6.1 0 0-1.2-7-3-17.9-7.1-41.3-24.2-144.5-20.9-148.5 4.3-5.1 113.6-17.4 120-17.1 6.5 0.2 102.4 17.6 105.3 20.3 2 1.9-8 79.3-14.2 126.3z"/>
				<path id="&lt;Path&gt;" class="s7" d="m246.4 244.8c-2.8 20.9-4.9 36.1-5 36.7-0.2 2-78.3 5.5-91.8 6-13.4 0.5-83.7-4-90.3-6.1 0 0-1.2-7-3-17.9v-0.3c0 0 8.2 9.9 18.7 15.3 10.4 5.4 51.2 7.6 82.8 5.9 31.7-1.7 66.2-11.4 76.5-19 9.4-7 11.7-18.5 12.1-20.6z"/>
				<path id="&lt;Path&gt;" class="s4" d="m35.4 115c0.8-7.3 105.9-13.2 112.8-8.4 6.8 4.8 3.8 177.9 1.4 180.9-2.3 3-90.3-6.1-90.3-6.1 0 0-25.5-151.9-23.9-166.4z"/>
				<path id="&lt;Path&gt;" class="s7" d="m85 206.4c2.3 39.5 0.7 65.7 0.7 65.7 0 0-12.6-18.5-15.3-63.9-2.8-47.4-0.1-99.8-0.1-99.8 0 0 12.4 57 14.7 98z"/>
				<path id="&lt;Path&gt;" class="s8" d="m215 278.8c-1.2 8.9-4.6 8.6-13.1 9.4-2.3 0.2-5.5 0.2-8.8 0.1-8.8-0.5-19.2-1.9-19.2-1.9l14.8-0.7c0 0 12.6-46.3 17.2-103.7 4.8-60.4 1.6-76.9-1.4-81.5-2.9-4.6-16.6 2.7-16.6 2.7l-5.5-1.1c0 0 18.4-8.8 23.2-8.4 4.8 0.3 20.4 7.8 27.5 8.4 7 0.7-16.8 167.7-18.1 176.7z"/>
				<path id="&lt;Path&gt;" class="s9" d="m123.2 286.7c0 0-6.7 4-10 4-3.2 0-21.1-0.1-23.7-2.5-2.6-2.4-4.3-14.4-8.3-45.8-4.1-32.1-16-124.8-9.4-145.3 0.7-2.1 1.7-3.3 3-3.5 13.4-1.6 26-5.6 28.9-2.8 2.9 2.9 10.1 11.3 10.1 11.3l-4 0.5c0 0-6.8-11.5-9-7-2.2 4.5-0.3 31.1 2.7 110.8 2.4 65.9 10.7 79.1 10.7 79.1z"/>
				<path id="&lt;Path&gt;" class="s10" d="m113.2 290.7c-3.2 0-21.1-0.1-23.7-2.5-2.6-2.4-4.1-14.5-8.3-45.8-4.4-32.5-16-124.8-9.4-145.3l1.1 0.6c13.4-6 21.8-4.1 21.8-4.1 0 0 1.3 68.4 6.1 121.9 4.6 51 12.4 75.2 12.4 75.2z"/>
				<path id="&lt;Path&gt;" class="s7" d="m205.2 206.7c-5.8 46.6-9.9 72.1-12.1 81.6-8.8-0.5-19.2-1.9-19.2-1.9l14.8-0.7c0 0 12.6-46.3 17.2-103.7 4.8-60.4 1.6-76.9-1.4-81.5-2.9-4.6-16.6 2.7-16.6 2.7l-5.5-1.1c0 0 18.4-8.8 23.2-8.4 5.7 1.5 9.8 32.5-0.4 113z"/>
				<path id="&lt;Path&gt;" class="s7" d="m206.6 106.3c10 51.1-13.5 160.9-13.5 160.9 0 0 8.5-161.5 4.5-162.3z"/>
				<path id="&lt;Path&gt;" class="s11" d="m89.5 288.2c0 0-5.5-27-0.9-24.8 4.6 2.2 23.2 27.3 23.2 27.3 0 0-16.6 0.1-22.3-2.5z"/>
				<path id="&lt;Path&gt;" class="s12" d="m127.8 233.1c-15-36.5-32.2-106.7-27.9-120.2 4.4-13.7 34.3-12 48.3-6.3 10.2 43.7-5.9 161.8-20.4 126.5z"/>
				<path id="&lt;Path&gt;" class="s13" d="m150.1 97.7c10.2 0.8 44.5 7.2 44.5 7.2 0 0-39.3 2.1-50.3 0-11-2.2-40.8-1.6-40.8-1.6 0 0 36.4-6.3 46.6-5.6z"/>
				<path id="&lt;Path&gt;" class="s14" d="m196.3 109.8c1.8 6.6 0.5 119.7-6.9 133.3-7.4 13.5-26.7 13-31.8-9.3-5.2-22.9-6.5-125.4-4.2-125.7 0 0 41-4.9 42.9 1.7z"/>
				<path id="&lt;Path&gt;" class="s0" d="m190 74.4c-12 12.1-22 17.6-23.2 18.3 6.6-4.4 14.7-11.2 23.2-18.3z"/>
				<path id="&lt;Path&gt;" class="s15" d="m166.8 130.6c-2.4-1.5-4.6 30.2-4.6 34.7 0 4.5 19-26 4.6-34.7z"/>
				<path id="&lt;Path&gt;" class="s16" d="m177 185.1c-0.8-2.8-2.7 12.1-3.1 13.7-0.5 1.6 5.7-4.4 3.1-13.7z"/>
				<path id="&lt;Path&gt;" class="s14" d="m42.7 139.2c-4.5 1.8 5.4 75.7 10.6 86.3 5.2 10.6 4.8-92.4-10.6-86.3z"/>
				<path id="&lt;Path&gt;" class="s12" d="m168.6 72.4c4.2-13.6 18.7-42.6 29-45 10.3-2.5 30.4 9.2 24.7 14 0 0-57.9 44.6-53.7 31z"/>
				<path id="&lt;Path&gt;" class="s12" d="m48.7 63.8c5.9-13.6 19.9-25.1 24.2-22.7 4.4 2.4 2 12.9-11.9 22.9-13.9 10.1-21.5 34.4-21.5 34.4 0 0 3.2-20.9 9.2-34.6z"/>
				<path id="&lt;Path&gt;" class="s17" d="m150.1 106.4v175.4c0 0 12.1-65.1 0-175.4z"/>
				<path id="&lt;Path&gt;" class="s18" d="m145.1 97.7c10.3 0.2-13.2-55.3-4.5-74.2 8.7-19 50.6-14.5 68.5-7.3 17.9 7.3-37.1 67-42.4 74.8-5.3 7.8-16.6 6.7-16.6 6.7 0 0 5.9 2.1 22.1-17.9 16.2-20 36.6-51.1 35.1-57.9-1.6-6.9-51.7-12.7-62.3 0.6-10.6 13.4-1.1 50.6 5.1 61 6.2 10.5-5 14.2-5 14.2z"/>
				<path id="&lt;Path&gt;" class="s18" d="m140.6 97.9c-1.3-1-10.8-11.9-12.8-24.1-2-12.2-1.3-46.9-20.2-56-18.8-9-34.9 14.3-30.6 24.7 4.3 10.5 36.1 23.6 42 29.9 6 6.3 21.6 26.7 15 26.4-6.7-0.3 1.5-13.1-22-27.7-23.4-14.6-45.8-26.2-37.1-41.3 8.7-15.1 21.8-22.5 38.3-14 16.6 8.5 25.7 80.9 29.4 82.1 0 0-0.8 1-2 0z"/>
				<path id="&lt;Path&gt;" class="s18" d="m131.4 99.1c0 0 4.7-5.7 13-6.4 8.4-0.7 17.8 6.1 17.8 6.1 0 0-20.7-2.1-30.8 0.3z"/>
			</g>
		</g>
	</g>
</svg>