<?xml version="1.0" encoding="UTF-8"?>
<svg width="50px" height="50px" viewBox="0 0 50 50" version="1.1" xmlns="http://www.w3.org/2000/svg" xmlns:xlink="http://www.w3.org/1999/xlink">
    <!-- Generator: Sketch 63.1 (92452) - https://sketch.com -->
    <title>logo</title>
    <desc>Created with Sketch.</desc>
    <g id="Home" stroke="none" stroke-width="1" fill="none" fill-rule="evenodd">
        <g id="Home-page" transform="translate(-205.000000, -38.000000)" fill="#0A0500" fill-rule="nonzero">
            <g id="top-section">
                <g id="header">
                    <path d="M230,38 C243.75,38 255,49.2 255,63 C255,76.8 243.8,88 230,88 C216.2,88 205,76.8 205,63 C205,49.2 216.2,38 230,38 Z M240.95,57.6 C235.75,55.25 230.45,56.5 226.65,58.15 C231.5,58.4 234.9,60.35 236.55,63.85 C238.3,67.5 237.6,71.95 234.7,75.4 C232.5,78 228.7,80.35 223.95,80.35 C222.65,80.35 221.25,80.15 219.75,79.75 C216.7,78.9 214.2,77.55 212.25,76.1 C216.3,81.5 222.75,85.05 230,85.05 C238.8,85.05 246.45,79.8 249.95,72.35 C250.2,71 251.5,62.3 240.95,57.6 Z M233.85,65.05 C232.15,61.45 227.95,60.85 224.75,61 C225.05,61.25 225.35,61.45 225.65,61.7 C228.95,64.35 230.25,67.45 229.35,70.65 C228.4,74.15 226.3,76.2 223.95,77.35 C227.7,77.3 230.7,75.5 232.4,73.45 C234.6,70.85 235.1,67.7 233.85,65.05 Z M237.55,49.95 L237.45,49.95 C232.8,50 229.5,51 226.05,52.1 C224.2,52.7 222.25,53.3 220.15,53.7 C215.5,54.6 211.85,53.75 210.2,53.25 C208.75,56.15 207.9,59.5 207.95,63 C207.95,64.2 208,65.35 208.2,66.45 C208.6,67.35 210.9,72.65 217.2,75.65 C218.4,75.75 224.85,76.1 226.55,69.9 C227.95,64.9 219.8,61.6 219.7,61.55 L219.7,61.55 L219.587793,61.4912109 C219.327344,61.3476562 219.08125,61.15625 218.95,60.85 C218.65,60.25 218.8,59.5 219.35,59.05 C219.45,58.95 222.25,56.7 226.4,55.05 C232,52.8 237.45,52.75 242.2,54.85 C247.9,57.4 250.7,61.05 252,64.4 C252.05,63.95 252.05,63.45 252.05,63 C252.05,60.15 251.5,57.45 250.5,54.95 C249.3,53.95 244.05,49.95 237.55,49.95 L237.55,49.95 Z M217.35,62.3 C217.35,62.3 218.25,65.4 217.8,66.45 C217.4,67.45 216.2,67.95 215.15,67.5 C214.1,67.05 213.65,65.9 214.05,64.9 C214.5,63.85 217.35,62.3 217.35,62.3 Z M235.85,44.6 L235.65,44.6 C232.2,44.65 229.75,45.4 227.2,46.2 C225.8,46.65 224.35,47.1 222.75,47.4 C221.6,47.6 220.5,47.7 219.55,47.7 C217.3,47.7 215.65,47.2 214.85,46.95 C213.7,48.05 212.65,49.25 211.75,50.6 C213.25,51 216.1,51.5 219.6,50.8 C221.6,50.45 223.35,49.9 225.2,49.3 C228.7,48.2 232.35,47.05 237.45,47 L237.45,47 L237.6,47 C241.4,47 244.75,48.15 247.35,49.45 C246.45,48.3 245.45,47.2 244.3,46.25 C243.8,46 240.8,44.6 235.85,44.6 L235.85,44.6 Z M230.479339,40.9437641 L229.95,40.95 C225.45,40.95 221.25,42.3 217.75,44.65 C218.9,44.8 220.4,44.85 222.15,44.5 C223.6,44.2 224.9,43.8 226.3,43.35 C228.95,42.5 231.7,41.65 235.5,41.65 C233.75,41.15 231.9,40.9 229.95,40.95 Z" id="logo"></path>
                </g>
            </g>
        </g>
    </g>
</svg>